<svg xmlns="http://www.w3.org/2000/svg" xmlns:xlink="http://www.w3.org/1999/xlink" width="40" height="40" viewBox="0 0 40 40">
  <defs>
    <clipPath id="clip-path">
      <circle id="Ellipse_108" data-name="Ellipse 108" cx="20" cy="20" r="20" fill="none"/>
    </clipPath>
    <clipPath id="clip-path-2">
      <rect id="Rectangle_4523" data-name="Rectangle 4523" width="42.963" height="42.963" transform="translate(0 0)" fill="none"/>
    </clipPath>
  </defs>
  <g id="Layer_2" data-name="Layer 2" transform="translate(-5.46 -5.39)">
    <g id="Graphic_Elements" data-name="Graphic Elements" transform="translate(5.46 5.39)">
      <g id="Group_5396" data-name="Group 5396" transform="translate(0)" clip-path="url(#clip-path)">
        <g id="Group_5395" data-name="Group 5395" transform="translate(-1.481 -1.481)" clip-path="url(#clip-path-2)">
          <rect id="Rectangle_4522" data-name="Rectangle 4522" width="43.236" height="43.093" transform="translate(-0.136 -0.116)" fill="#757a7f"/>
        </g>
      </g>
      <path id="Path_10565" data-name="Path 10565" d="M37.593,27.27c3.363,0,3.76,0,5.087.074a6.933,6.933,0,0,1,2.341.433,4.181,4.181,0,0,1,2.388,2.388,6.933,6.933,0,0,1,.433,2.341c.062,1.327.074,1.724.074,5.087s0,3.76-.074,5.087a6.933,6.933,0,0,1-.433,2.341,4.181,4.181,0,0,1-2.388,2.388,6.933,6.933,0,0,1-2.341.433c-1.327.062-1.724.074-5.087.074s-3.76,0-5.087-.074a6.933,6.933,0,0,1-2.341-.433,4.181,4.181,0,0,1-2.388-2.388,6.933,6.933,0,0,1-.433-2.341c-.062-1.327-.074-1.724-.074-5.087s0-3.76.074-5.087a6.933,6.933,0,0,1,.433-2.341,4.181,4.181,0,0,1,2.388-2.388,6.933,6.933,0,0,1,2.341-.433c1.327-.062,1.724-.074,5.087-.074m0-2.27c-3.419,0-3.852.015-5.191.077a9.185,9.185,0,0,0-3.058.593,6.43,6.43,0,0,0-3.683,3.674,9.185,9.185,0,0,0-.593,3.058C25.015,33.744,25,34.185,25,37.593s.015,3.852.077,5.191a9.185,9.185,0,0,0,.593,3.058,6.43,6.43,0,0,0,3.683,3.683,9.185,9.185,0,0,0,3.058.593c1.342.062,1.778.077,5.191.077s3.852,0,5.191-.077a9.185,9.185,0,0,0,3.058-.593,6.43,6.43,0,0,0,3.683-3.683,9.185,9.185,0,0,0,.593-3.058c.062-1.342.077-1.778.077-5.191s0-3.852-.077-5.191a9.185,9.185,0,0,0-.593-3.058,6.43,6.43,0,0,0-3.692-3.683,9.185,9.185,0,0,0-3.058-.593C41.441,25.015,41,25,37.593,25Z" transform="translate(-17.593 -17.593)" fill="#fff"/>
      <path id="Path_10566" data-name="Path 10566" d="M52.145,45.68a6.465,6.465,0,1,0,6.465,6.465A6.465,6.465,0,0,0,52.145,45.68Zm0,10.667a4.2,4.2,0,1,1,4.2-4.2,4.2,4.2,0,0,1-4.2,4.2Z" transform="translate(-32.145 -32.145)" fill="#fff"/>
      <circle id="Ellipse_109" data-name="Ellipse 109" cx="1.511" cy="1.511" r="1.511" transform="translate(25.212 11.766)" fill="#fff"/>
    </g>
  </g>
</svg>
