<svg id="Layer_2" data-name="Layer 2" xmlns="http://www.w3.org/2000/svg" width="40" height="40" viewBox="0 0 40 40">
  <g id="Graphic_Elements" data-name="Graphic Elements">
    <circle id="Ellipse_106" data-name="Ellipse 106" cx="20" cy="20" r="20" fill="#757a7f"/>
    <path id="Path_10561" data-name="Path 10561" d="M61.524,52.305c.329-.367.593-.744.936-1.061a5.126,5.126,0,0,1,3.7-1.458,8.516,8.516,0,0,1,2.323.3,4.541,4.541,0,0,1,3.227,3.393,14.222,14.222,0,0,1,.43,3.887v8.3c0,.261-.071.326-.326.326q-2.133-.018-4.27,0c-.249,0-.3-.077-.3-.3q-.009-3.988-.009-7.926a7.159,7.159,0,0,0-.228-1.959,2.2,2.2,0,0,0-2.421-1.716,2.646,2.646,0,0,0-2.782,2.64,10.13,10.13,0,0,0-.074,1.236q0,3.831,0,7.668c0,.255-.062.332-.323.329q-2.151-.018-4.3,0c-.228,0-.3-.062-.3-.3V50.48c0-.252.083-.3.32-.3h4.083c.252,0,.317.077.3.314C61.515,51.1,61.524,51.7,61.524,52.305Z" transform="translate(-39.977 -35.034)" fill="#fefefe"/>
    <path id="Path_10562" data-name="Path 10562" d="M34.719,58.979v7.514c0,.279-.068.361-.356.359H30.1c-.228,0-.3-.056-.3-.3V51.346c0-.21.05-.3.273-.3H34.4c.276,0,.314.1.314.341C34.716,53.93,34.719,56.454,34.719,58.979Z" transform="translate(-20.97 -35.924)" fill="#fefefe"/>
    <path id="Path_10563" data-name="Path 10563" d="M34.219,27.427A2.844,2.844,0,1,1,31.38,24.6,2.844,2.844,0,0,1,34.219,27.427Z" transform="translate(-20.077 -17.311)" fill="#fefefe"/>
  </g>
</svg>
