<svg id="Layer_2" data-name="Layer 2" xmlns="http://www.w3.org/2000/svg" xmlns:xlink="http://www.w3.org/1999/xlink" width="32" height="32" viewBox="0 0 32 32">
  <defs>
    <linearGradient id="linear-gradient" x1="0.5" y1="0.927" x2="0.5" y2="-0.073" gradientUnits="objectBoundingBox">
      <stop offset="0" stop-color="#78cd51"/>
      <stop offset="1" stop-color="#a0fc84"/>
    </linearGradient>
  </defs>
  <g id="Graphic_Elements" data-name="Graphic Elements">
    <circle id="Ellipse_110" data-name="Ellipse 110" cx="16" cy="16" r="16" fill="url(#linear-gradient)"/>
    <g id="WA_Logo" data-name="WA Logo" transform="translate(6.281 5.53)">
      <path id="Path_10567" data-name="Path 10567" d="M43.922,26.3A10.152,10.152,0,0,0,27.946,38.543L26.5,43.8l5.381-1.422a10.136,10.136,0,0,0,4.85,1.259h0A10.15,10.15,0,0,0,43.922,26.3ZM36.735,41.911h0a8.429,8.429,0,0,1-4.3-1.185l-.311-.171-3.193.834.853-3.112-.2-.318a8.436,8.436,0,1,1,7.147,3.951Zm4.627-6.317c-.254-.126-1.5-.74-1.733-.825s-.4-.126-.571.128-.654.825-.8.993-.3.192-.55.064A6.874,6.874,0,0,1,35.666,34.7a7.651,7.651,0,0,1-1.422-1.756c-.147-.254-.014-.391.111-.517s.254-.3.382-.443A1.8,1.8,0,0,0,35,31.548a.474.474,0,0,0-.021-.443c-.064-.128-.571-1.375-.782-1.882s-.415-.429-.571-.436-.318,0-.474,0a.934.934,0,0,0-.676.318,2.844,2.844,0,0,0-.889,2.114,4.947,4.947,0,0,0,1.036,2.624,11.286,11.286,0,0,0,4.333,3.828A14.3,14.3,0,0,0,38.4,38.2a3.477,3.477,0,0,0,1.6.1A2.644,2.644,0,0,0,41.713,37.1a2.115,2.115,0,0,0,.147-1.207C41.8,35.786,41.616,35.722,41.362,35.594Z" transform="translate(-26.5 -23.33)" fill="#fff"/>
    </g>
  </g>
</svg>
