<svg id="Layer_2" data-name="Layer 2" xmlns="http://www.w3.org/2000/svg" width="40" height="40" viewBox="0 0 40 40">
  <g id="Graphic_Elements" data-name="Graphic Elements">
    <circle id="Ellipse_107" data-name="Ellipse 107" cx="20" cy="20" r="20" fill="#757a7f"/>
    <path id="Path_10564" data-name="Path 10564" d="M48.581,38.916a3.348,3.348,0,0,0-2.37-2.37C44.143,36,35.805,36,35.805,36s-8.338,0-10.418.557a3.348,3.348,0,0,0-2.37,2.37,37.249,37.249,0,0,0,0,12.836,3.348,3.348,0,0,0,2.37,2.37c2.08.533,10.418.533,10.418.533s8.338,0,10.418-.557a3.348,3.348,0,0,0,2.37-2.37,34.676,34.676,0,0,0,.557-6.418A34.979,34.979,0,0,0,48.581,38.916ZM33.139,49.333v-8l6.927,4Z" transform="translate(-15.805 -25.333)" fill="#fff"/>
  </g>
</svg>
