<svg id="Layer_2" data-name="Layer 2" xmlns="http://www.w3.org/2000/svg" width="300" height="42.051" viewBox="0 0 300 42.051">
  <g id="Layer_1" data-name="Layer 1" transform="translate(0 0)">
    <g id="Layer_2-2" data-name="Layer 2">
      <g id="Layer_1-2" data-name="Layer 1-2">
        <path id="Path_10557" data-name="Path 10557" d="M69.133,10.762a21.352,21.352,0,0,1,.527,2.322l-10.067-.132a11.989,11.989,0,0,0-.959-1.879,7.515,7.515,0,0,0-1.016-1.28q-2.634-2.618-7.8-2.618a10.187,10.187,0,0,0-8.306,3.692q-3.042,3.692-3.04,10.447T41.676,31.43a10.771,10.771,0,0,0,8.151,3.364q5.069,0,7.73-2.882a8.163,8.163,0,0,0,2.172-3.851l9.842-.14a15.6,15.6,0,0,1-6.246,10.02q-5.207,4.116-13.342,4.111-10.069,0-15.83-5.554-5.763-5.587-5.762-15.31,0-10.513,6.554-16.208,5.7-4.961,14.5-4.961,11.783,0,17.225,6.647A15.841,15.841,0,0,1,69.133,10.762ZM0,1.026H10.583V31.919h17.3v9.147H0Zm289.544-.009H300V41.023H289.544Zm-39.363.008h10.465V17.172L273.284,1.017h12.329L270.631,19.059l16.592,21.963H273.956L260.8,21.8l-.153,19.223h-10.46Zm-15.132-.008H245.5V41.023H235.048Zm-38.9.008h10.461V17.172L219.251,1.017H231.58L216.6,19.059,233.18,41.025H219.909L206.761,21.8l-.155,19.221H196.145Zm-15.551-.008h10.457V41.023H180.594Zm-4.335,31.112c-.074-2.963-.154-6-.154-10.057V16.923C176.105,5.07,171.064,0,158.881,0A35.572,35.572,0,0,0,145,3.044l-2.582,9.7c3.491-2.652,10.8-5.1,15.227-5.1,6.13,0,9,2.182,9,8.655H160.9c-4.347,0-9.464.387-13.42,2.341S140.656,24.1,140.656,30.1c0,7.637,6.905,11.931,13.965,11.931a14.845,14.845,0,0,0,10.325-4.255v-7.68a8.21,8.21,0,0,1-.475.71,8.811,8.811,0,0,1-7.291,3.587c-3.726,0-6.6-1.481-6.6-4.91,0-6.162,6.906-6.939,11.565-6.939l5.375-.127.076,18.254.057.348h9.458C176.875,37.893,176.339,35.171,176.259,32.128ZM143.482,1.011,132.014,41.023h-12.25l-8.21-30.814-8.209,30.814H92.13L79.5,1.011H89.892l8.249,29.537,7.672-29.537H117.45l8.106,29.537,7.888-29.532Z" transform="translate(0 0)" fill="#0047ba"/>
      </g>
    </g>
  </g>
</svg>
